<?xml version="1.0" encoding="UTF-8"?>
<svg width="2009px" height="330px" viewBox="0 0 2009 330" version="1.1" xmlns="http://www.w3.org/2000/svg" xmlns:xlink="http://www.w3.org/1999/xlink">
    <!-- Generator: Sketch 49 (51002) - http://www.bohemiancoding.com/sketch -->
    <title>Logo / Karma Computing / Landscape</title>
    <desc>Created with Sketch.</desc>
    <defs></defs>
    <g id="Logo-/-Karma-Computing-/-Landscape" stroke="none" stroke-width="1" fill="none" fill-rule="evenodd">
        <path d="M146.587492,238.442777 L146.587492,102.688555 L176.366234,102.688555 L176.366234,169.664657 L240.428065,102.688555 L280.967192,102.688555 L209.398116,175.935828 L285.721781,265.488144 L247.434828,265.488144 L189.629035,196.505268 L176.366234,210.050996 L176.366234,265.488144 L176.105232,265.488144 L176.105232,265.493433 L83.7989697,265.493433 C38.0079106,265.493433 1,228.32144 1,182.426112 C1,152.232247 17.263996,124.970517 42.607079,110.367369 C43.9406631,50.2965441 92.8952672,2 153.105347,2 C189.288632,2 222.411694,19.5998985 242.893718,48.2037953 C251.844988,45.2545929 261.27713,43.7251959 270.912991,43.7251959 C303.969763,43.7251959 333.864673,61.8201752 349.535887,90.3238169 L325.868804,103.369084 C314.898453,83.4156236 294.016151,70.7758526 270.912991,70.7758526 C261.265869,70.7758526 251.955383,72.9548834 243.491747,77.0936114 L232.066312,82.6806618 L225.806251,71.5991344 C211.065525,45.5051789 183.523419,29.0506567 153.105347,29.0506567 C106.990836,29.0506567 69.5954044,66.5774224 69.5954044,112.884119 C69.5954044,114.538628 69.6429835,116.186624 69.7377448,117.82689 L70.281714,127.24269 L61.6455708,131.008431 C41.409852,139.832101 28.0162357,159.925591 28.0162357,182.426112 C28.0162357,213.400821 52.9476531,238.442777 83.7989697,238.442777 L146.587492,238.442777 Z M333.267671,194.247646 C342.943725,194.247646 354.121068,195.836327 366.800036,199.013736 L366.800036,186.973088 C366.800036,178.444254 365.090069,172.131338 361.670085,168.034153 C358.2501,163.936968 352.661428,161.888406 344.903902,161.888406 C337.146376,161.888406 331.182346,163.435279 327.011633,166.529072 C322.84092,169.622865 320.755595,174.012641 320.755595,179.69853 L288.474438,179.69853 C288.474438,165.81827 293.354099,155.784497 303.113567,149.596912 C312.873036,143.409326 326.511063,140.315579 344.028057,140.315579 C369.052335,140.315579 385.234458,149.09513 392.574913,166.654496 C395.077341,172.674849 396.328536,179.782105 396.328536,187.976476 L396.328536,265.488144 L370.553659,265.488144 L368.301485,249.183101 C360.460545,262.394433 348.449072,269 332.266705,269 C316.584824,269 304.406525,265.15372 295.731442,257.461046 C287.723673,250.102836 283.719849,240.779789 283.719849,229.491625 C283.719849,218.203462 288.140738,209.507525 296.98265,203.403555 C305.824561,197.299585 317.919448,194.247646 333.267671,194.247646 Z M366.800036,217.827248 C356.957153,215.151535 347.781722,213.813699 339.273468,213.813699 C323.25793,213.813699 315.250281,219.165044 315.250281,229.867895 C315.250281,234.383161 317.085368,238.271248 320.755595,241.532273 C324.425822,244.793298 330.306439,246.423786 338.397623,246.423786 C346.488806,246.423786 353.161846,243.706306 358.416945,238.271264 C363.672043,232.836222 366.466379,226.021618 366.800036,217.827248 Z M451.882155,167.657883 C459.22261,150.098517 470.233127,141.318966 484.914036,141.318966 C487.750121,141.318966 491.336881,141.90427 495.674422,143.074894 L495.173939,172.674819 C490.502741,171.671427 485.915025,171.169738 481.410655,171.169738 C461.72489,171.169738 451.882155,184.798946 451.882155,212.057771 L451.882155,265.488144 L422.353655,265.488144 L422.353655,143.325741 L451.882155,143.325741 L451.882155,167.657883 Z M617.542046,166.653955 C625.382986,149.09495 639.146132,140.315579 658.831897,140.315579 C673.345979,140.315579 684.606735,145.248749 692.614504,155.115238 C700.288615,164.480041 704.125614,177.523678 704.125614,194.24654 L704.125614,265.485577 L674.346872,265.485577 L674.346872,194.24654 C674.346872,185.216195 672.178134,178.40173 667.840592,173.802943 C663.503051,169.204156 657.413901,166.904797 649.572961,166.904797 C641.732021,166.904797 635.309219,170.332932 630.304363,177.189306 C625.299508,184.045679 622.630292,194.413699 622.296635,208.293674 L622.296635,265.485577 L592.768134,265.485577 L592.768134,194.24654 C592.768134,185.216195 590.599396,178.40173 586.261855,173.802943 C581.924313,169.204156 575.835164,166.904797 567.994223,166.904797 C560.153283,166.904797 553.438536,170.416545 547.84978,177.440148 C542.261025,184.46375 539.299863,194.998995 538.966206,209.046199 L538.966206,265.485577 L509.437706,265.485577 L509.687948,145.081571 L536.714032,145.081571 L536.714032,162.138805 C544.721801,145.917629 559.319095,140.315579 577.002918,140.315579 C587.179458,140.315579 595.645878,142.656745 602.402433,147.339146 C609.158988,152.021547 614.205475,158.459753 617.542046,166.653955 Z M769.939135,194.247646 C779.615189,194.247646 790.792532,195.836327 803.4715,199.013736 L803.4715,186.973088 C803.4715,178.444254 801.761533,172.131338 798.341549,168.034153 C794.921564,163.936968 789.332892,161.888406 781.575366,161.888406 C773.81784,161.888406 767.85381,163.435279 763.683097,166.529072 C759.512384,169.622865 757.427059,174.012641 757.427059,179.69853 L725.145902,179.69853 C725.145902,165.81827 730.025563,155.784497 739.785031,149.596912 C749.5445,143.409326 763.182526,140.315579 780.699521,140.315579 C805.723799,140.315579 821.905922,149.09513 829.246377,166.654496 C831.748805,172.674849 833,179.782105 833,187.976476 L833,265.488144 L807.225123,265.488144 L804.972949,249.183101 C797.132009,262.394433 785.120535,269 768.938169,269 C753.256288,269 741.077989,265.15372 732.402906,257.461046 C724.395137,250.102836 720.391313,240.779789 720.391313,229.491625 C720.391313,218.203462 724.812202,209.507525 733.654114,203.403555 C742.496025,197.299585 754.590912,194.247646 769.939135,194.247646 Z M803.4715,217.827248 C793.628617,215.151535 784.453186,213.813699 775.944932,213.813699 C759.929394,213.813699 751.921745,219.165044 751.921745,229.867895 C751.921745,234.383161 753.756832,238.271248 757.427059,241.532273 C761.097286,244.793298 766.977903,246.423786 775.069087,246.423786 C783.16027,246.423786 789.83331,243.706306 795.088409,238.271264 C800.343507,232.836222 803.137843,226.021618 803.4715,217.827248 Z" id="Karma" fill="#FFFFFF"></path>
        <path d="M942.63207,101.659574 C952.615212,101.659574 961.267139,102.854357 968.58811,105.243957 C975.909082,107.633557 982.231644,110.970708 987.555986,115.255508 C998.038286,123.660309 1004.86,135.443333 1008.02133,150.604935 L976.574584,156.290507 C973.912413,147.885706 969.794429,141.087808 964.220507,135.896607 C958.646586,130.705407 951.700087,128.109845 943.380802,128.109845 C932.066574,128.109845 922.915497,132.806575 915.927298,142.200176 C908.439941,152.417777 904.696319,166.549167 904.696319,184.594769 C904.696319,202.640371 908.023983,216.730561 914.679411,226.865762 C921.334839,237.000963 930.402724,242.068488 941.883338,242.068488 C953.363952,242.068488 962.015879,239.308129 967.839378,233.787328 C973.662878,228.266528 976.574584,221.139034 976.574584,212.404633 L1008.2709,212.404633 C1008.2709,230.367835 1002.48909,244.252028 990.92528,254.057629 C979.361473,263.86323 963.513472,268.765957 943.380802,268.765957 C921.917046,268.765957 904.862767,261.350068 892.217453,246.518066 C879.405754,231.356465 873,210.756771 873,184.718368 C873,158.350365 879.572137,137.750672 892.716608,122.918671 C905.361921,108.745869 922.000242,101.659574 942.63207,101.659574 Z M1067.93538,142.170213 C1075.98496,142.170213 1083.5416,143.445206 1090.60552,145.99523 C1097.66944,148.545255 1103.74761,152.452492 1108.8402,157.717059 C1120.17533,169.233298 1125.84281,185.191277 1125.84281,205.591473 C1125.84281,225.662633 1120.17533,241.456097 1108.8402,252.972336 C1098.65501,263.50147 1085.02021,268.765957 1067.93538,268.765957 C1050.85055,268.765957 1037.05147,263.50147 1026.53772,252.972336 C1015.2026,241.620614 1009.53512,225.827151 1009.53512,205.591473 C1009.53512,185.026759 1015.2026,169.068781 1026.53772,157.717059 C1036.88719,147.352443 1050.68627,142.170213 1067.93538,142.170213 Z M1096.76589,204.202128 C1096.76589,191.54249 1094.29128,182.047904 1089.34199,175.718085 C1084.3927,169.388266 1077.50505,166.223404 1068.67882,166.223404 C1059.85259,166.223404 1052.63498,169.388266 1047.02579,175.718085 C1041.41659,182.047904 1038.61204,191.54249 1038.61204,204.202128 C1038.61204,216.861765 1041.12789,226.356351 1046.15967,232.68617 C1051.19144,239.015989 1058.0791,242.180851 1066.82284,242.180851 C1075.56658,242.180851 1082.74294,239.015989 1088.35214,232.68617 C1093.96133,226.356351 1096.76589,216.861765 1096.76589,204.202128 Z M1246.45013,168.275828 C1254.18928,150.871998 1267.77376,142.170213 1287.20397,142.170213 C1301.52963,142.170213 1312.64421,147.059787 1320.54802,156.839082 C1328.12251,166.121125 1331.9097,179.049491 1331.9097,195.624568 L1331.9097,266.234043 L1302.51753,266.234043 L1302.51753,195.624568 C1302.51753,186.674027 1300.37695,179.919784 1296.09572,175.361638 C1291.81448,170.803492 1285.80438,168.524453 1278.06523,168.524453 C1270.32608,168.524453 1263.98666,171.922293 1259.04677,178.718074 C1254.10689,185.513856 1251.47232,195.790249 1251.143,209.547563 L1251.143,266.234043 L1221.99782,266.234043 L1221.99782,195.624568 C1221.99782,186.674027 1219.85724,179.919784 1215.57601,175.361638 C1211.29477,170.803492 1205.28467,168.524453 1197.54552,168.524453 C1189.80637,168.524453 1183.17879,172.005167 1177.66259,178.966699 C1172.14638,185.928232 1169.22366,196.370373 1168.89434,210.293438 L1168.89434,266.234043 L1139.74916,266.234043 L1139.74916,145.402337 L1165.18944,145.402337 L1168.40035,166.286829 C1176.30416,150.209004 1188.98301,142.170213 1206.43727,142.170213 C1216.4817,142.170213 1224.83821,144.490689 1231.50705,149.13171 C1238.1759,153.772732 1243.15687,160.154041 1246.45013,168.275828 Z M1381.39157,161.601628 C1388.98048,148.647286 1400.52865,142.170213 1416.03642,142.170213 C1430.88428,142.170213 1443.58727,147.745415 1454.14575,158.895988 C1465.36413,170.702476 1470.97324,186.116271 1470.97324,205.137835 C1470.97324,224.323379 1465.28165,239.819162 1453.89829,251.62565 C1443.3398,262.776223 1430.71931,268.351425 1416.03642,268.351425 C1401.35353,268.351425 1390.63023,264.006047 1383.86621,255.31516 L1383.86621,323.202128 L1354.66555,323.202128 L1354.66555,145.367787 L1378.66948,145.367787 L1381.39157,161.601628 Z M1410.94749,240.914894 C1414.44173,240.914894 1418.06071,240.180646 1421.80454,238.712128 C1425.54837,237.24361 1428.91777,234.959283 1431.91283,231.859078 C1438.56852,225.005994 1441.89632,215.827894 1441.89632,204.324504 C1441.89632,192.821113 1439.0261,183.806179 1433.28556,177.279433 C1427.54502,170.752686 1420.55665,167.489362 1412.32022,167.489362 C1404.0838,167.489362 1397.34501,169.81448 1392.10365,174.464787 C1386.86229,179.115094 1384.07526,185.764118 1383.74247,194.412057 L1383.74247,215.705461 C1383.74247,223.374388 1386.48791,229.574704 1391.97886,234.306596 C1397.13702,238.71215 1403.45984,240.914894 1410.94749,240.914894 Z M1564.49425,243.485094 C1556.92948,259.495111 1544.76026,267.5 1527.98621,267.5 C1506.77198,267.5 1492.79382,259.165013 1486.05131,242.494788 C1483.58454,236.717978 1482.35117,229.703384 1482.35117,221.450798 L1482.35117,144.702128 L1511.45893,144.702128 L1511.45893,218.479882 C1511.45893,226.402365 1513.35009,232.302875 1517.13247,236.181591 C1520.91486,240.060307 1525.56054,241.999635 1531.06966,241.999635 C1536.57879,241.999635 1541.22447,241.215651 1545.00685,239.64766 C1548.78923,238.079669 1552.07821,235.727717 1554.87389,232.591734 C1560.95859,225.49451 1564.16535,216.004177 1564.49425,204.120453 L1564.49425,144.702128 L1593.60201,144.702128 L1593.60201,265.271813 L1564.49425,265.271813 L1564.49425,243.485094 Z M1687.15385,262.319251 C1676.19475,266.617077 1667.56045,268.765957 1661.25067,268.765957 C1654.94089,268.765957 1649.41991,268.022114 1644.68758,266.534405 C1639.95524,265.046696 1635.76262,262.815166 1632.10959,259.839748 C1624.47143,253.062407 1620.65241,243.72304 1620.65241,231.821368 L1620.65241,164.378896 L1603.71572,164.378896 L1603.71572,144.790825 L1620.65241,144.790825 L1620.65241,113.053191 L1650.04256,113.053191 L1650.04256,144.790825 L1682.91967,144.790825 L1682.91967,164.378896 L1650.04256,164.378896 L1650.04256,230.829567 C1650.04256,240.747627 1654.77482,245.706583 1664.23949,245.706583 C1669.05485,245.706583 1675.28152,244.384195 1682.91967,241.739379 L1687.15385,262.319251 Z M1699.79599,144.702128 L1728.87291,144.702128 L1728.87291,264.968085 L1699.79599,264.968085 L1699.79599,144.702128 Z M1696.00334,106.090426 C1696.00334,100.806403 1697.5937,96.6370412 1700.77445,93.5822155 C1703.95521,90.5273899 1708.47516,89 1714.33445,89 C1720.02633,89 1724.50443,90.5273899 1727.76889,93.5822155 C1731.03335,96.6370412 1732.66555,100.806403 1732.66555,106.090426 C1732.66555,111.374448 1731.03335,115.54381 1727.76889,118.598636 C1724.50443,121.653461 1720.02633,123.180851 1714.33445,123.180851 C1708.47516,123.180851 1703.95521,121.653461 1700.77445,118.598636 C1697.5937,115.54381 1696.00334,111.374448 1696.00334,106.090426 Z M1785.30002,166.286829 C1793.19369,150.209004 1805.85626,142.170213 1823.28811,142.170213 C1838.08874,142.170213 1849.23016,147.059787 1856.7127,156.839082 C1864.19524,166.618378 1867.93645,179.546744 1867.93645,195.624568 L1867.93645,266.234043 L1838.8287,266.234043 L1838.8287,195.624568 C1838.8287,186.674027 1836.69086,179.919784 1832.41512,175.361638 C1828.13939,170.803492 1822.137,168.524453 1814.40778,168.524453 C1806.67856,168.524453 1800.05949,172.005167 1794.55037,178.966699 C1789.04125,185.928232 1786.12228,196.370373 1785.79338,210.293438 L1785.79338,266.234043 L1756.68562,266.234043 L1756.68562,145.402337 L1782.09324,145.402337 L1785.30002,166.286829 Z M1900.41774,215.482286 C1890.59981,207.221674 1885.69092,196.896063 1885.69092,184.505144 C1885.69092,171.453375 1890.84942,160.87995 1901.16656,152.784549 C1911.1509,145.019573 1922.59111,141.137144 1935.48755,141.137144 C1948.38398,141.137144 1959.15858,143.532685 1967.81168,148.323841 C1968.81011,138.906742 1972.88699,131.307093 1980.04243,125.524664 C1987.03146,119.742235 1995.26842,116.851064 2004.75354,116.851064 L2003.25589,144.854401 C1988.94501,144.854401 1981.54007,149.562879 1981.04086,158.979978 C1987.19786,166.579742 1990.27632,174.344601 1990.27632,182.274789 C1990.27632,190.204977 1988.86189,196.854671 1986.033,202.224069 C1983.2041,207.593467 1979.37683,212.095434 1974.55107,215.730103 C1964.56673,223.660292 1952.41931,227.625326 1938.10842,227.625326 C1929.95455,227.625326 1922.54961,226.386253 1915.89339,223.908069 C1909.23716,225.890616 1905.9091,229.855651 1905.9091,235.803292 C1905.9091,243.237843 1912.23242,246.955063 1924.87924,246.955063 L1965.56521,246.955063 C1993.18854,246.955063 2007,256.53723 2007,275.701852 C2007,282.14513 2005.37757,288.464403 2002.13266,294.659863 C1998.88775,300.855323 1994.18686,306.348548 1988.02986,311.139703 C1974.3846,321.713287 1957.24508,327 1936.61078,327 C1916.64211,327 1900.4178,322.95236 1887.93738,314.85696 C1876.28899,307.091984 1870.46488,297.592422 1870.46488,286.357989 C1870.46488,278.923437 1872.75293,273.017188 1877.32908,268.639063 C1881.90523,264.260938 1887.93735,261.493675 1895.4256,260.337189 C1885.60767,254.389548 1880.69878,247.037713 1880.69878,238.281463 C1880.69878,232.499034 1882.52921,227.666648 1886.19013,223.78416 C1889.85106,219.901673 1894.59355,217.134409 1900.41774,215.482286 Z M1923.89202,267.5 C1908.50128,268.147434 1900.80602,273.89332 1900.80602,284.737832 C1900.80602,290.241017 1904.03966,294.651591 1910.50705,297.969688 C1916.97444,301.287785 1924.62876,302.946809 1933.47025,302.946809 C1942.31174,302.946809 1949.22929,302.218457 1954.22309,300.761731 C1959.21689,299.305006 1963.43291,297.362734 1966.87127,294.934859 C1974.23918,290.079107 1977.92308,284.252293 1977.92308,277.454241 C1977.92308,274.54079 1976.89977,272.153415 1974.85313,270.292043 C1972.80649,268.430672 1969.81844,267.5 1965.88889,267.5 L1923.89202,267.5 Z M1960.22408,183.946809 C1960.22408,177.176654 1958.37903,171.686307 1954.68887,167.475601 C1950.99872,163.264896 1945.38156,161.159574 1937.83724,161.159574 C1930.29292,161.159574 1924.55276,163.264896 1920.6166,167.475601 C1916.68043,171.686307 1914.71237,177.135374 1914.71237,183.822965 C1914.71237,190.510556 1916.68043,196.000904 1920.6166,200.294172 C1924.55276,204.587441 1930.29292,206.734043 1937.83724,206.734043 C1945.38156,206.734043 1950.99872,204.587441 1954.68887,200.294172 C1958.37903,196.000904 1960.22408,190.551837 1960.22408,183.946809 Z" id="Computing" fill="#FFFFFF"></path>
    </g>
</svg>